<svg width="20" height="20" viewBox="0 0 19 18" fill="none" xmlns="http://www.w3.org/2000/svg">
<path fill-rule="evenodd" clip-rule="evenodd" d="M8.46739 1.49769C8.52382 1.27849 8.57794 1.21386 8.68618 1.08461C8.95954 0.758171 9.30526 0.489531 9.68006 0.305917C10.3045 0 11.1163 0 12.7399 0H14.2599C15.8835 0 16.6952 0 17.3197 0.305917C17.9176 0.598821 18.4011 1.08229 18.694 1.68018C18.9999 2.30464 18.9999 3.11642 18.9999 4.74V13.26C18.9999 14.8836 18.9999 15.6954 18.694 16.3198C18.4011 16.9177 17.9176 17.4012 17.3197 17.6941C16.6952 18 15.8835 18 14.2599 18H12.7399C11.1163 18 10.3045 18 9.68006 17.6941C9.30526 17.5105 8.95953 17.2418 8.68618 16.9154C8.57794 16.7861 8.52382 16.7215 8.46739 16.5023C8.42712 16.3459 8.45014 16.0195 8.51198 15.8702C8.59862 15.6611 8.71546 15.556 8.94915 15.3457L15.174 9.74329C15.6154 9.34605 15.6154 8.65394 15.174 8.2567L8.94915 2.65434C8.71546 2.44402 8.59862 2.33886 8.51198 2.12976C8.45014 1.98051 8.42712 1.65414 8.46739 1.49769ZM12.5 9.00005C12.5 8.58986 12.253 8.23736 11.8997 8.08312L8.64018 5.36687C7.98886 4.8241 7 5.28725 7 6.13509V8.00005L1 8.00005C0.447715 8.00005 0 8.44777 0 9.00005C0 9.55233 0.447716 10.0001 1 10.0001L7 10V11.865C7 12.7128 7.98886 13.176 8.64018 12.6332L11.8997 9.91697C12.253 9.76273 12.5 9.41023 12.5 9.00005Z" fill="#336FEE"/>
</svg>
